<svg viewBox="0 0 80 80" xmlns="http://www.w3.org/2000/svg" xmlns:xlink="http://www.w3.org/1999/xlink"><defs><path d="M155.584 292.12v55.303l32.845-23.13c3.12-2.21 3.12-6.84 0-9.05Z" id="a"/></defs><g transform="scale(.15856)"><path fill="#0078C8" d="M474.2 148.102c-.07-.01-.13-.01-.2-.01h-25.66H243.58v346.827c1.4 0 2.67-.78 3.38-1.99 4.28-7.3 12.2-12.2 21.27-12.2h205.75c.06 0 .13-.01.19-.01Z"/><path fill="#0268B4" d="M474.01 148.092h-25.66 -16.77c3.14 0 5.7 2.55 5.7 5.7V475.04c0 3.14-2.56 5.7-5.71 5.7h42.41c3.14 0 5.7-2.56 5.7-5.71 0-6.17 0-314.65 0-321.248 0-3.15-2.56-5.71-5.71-5.71Z"/><path fill="#D5E3F4" d="M439.792 129.23H257.85c-7.88 0-14.26 6.381-14.26 14.25v306.63h2.31c2.54-3.91 6.93-6.49 11.94-6.49h181.935Z"/><path fill="#0268B4" d="M243.605 494.919v-28.93 -15.87 -302.04H38.85 13.19c-3.15 0-5.71 2.55-5.71 5.7v147.17 37.6 136.466c0 3.14 2.55 5.7 5.7 5.7H218.93c9.06 0 16.99 4.89 21.27 12.19 .71 1.21 1.97 1.98 3.38 1.98Z"/><path fill="#F47C7C" d="M396.122 413.97h-100.29c-4.28 0-7.75-3.47-7.75-7.75V331c0-4.28 3.46-7.75 7.74-7.75h100.28c4.27 0 7.74 3.46 7.74 7.74v75.21c0 4.27-3.47 7.74-7.75 7.74Z"/><path fill="#B3DAFE" d="M241.29 450.127h2.31V143.48c0-7.88-6.381-14.26-14.26-14.26H45.49c-3.68 0-6.66 2.97-6.66 6.65v301.1c0 3.67 2.97 6.65 6.65 6.65h183.849c5 0 9.39 2.58 11.94 6.48Z"/><use fill="#E5EEF9" xlink:href="#a"/><path fill="#B3DAFE" d="M441.7 129.23h-33.94c3.67 0 6.65 2.97 6.65 6.65v301.1c0 3.67-2.98 6.65-6.66 6.65h33.93c3.67 0 6.65-2.98 6.65-6.66v-301.1c0-3.68-2.98-6.66-6.66-6.66Z"/><path fill="#FDB97E" d="M360.063 206.83h55.72c3.63-10.81 9.64-20.66 17.59-28.84 11.69-12.03 18.66-28.68 17.89-46.947 -1.39-32.75-28.12-59.35-60.87-60.604 -36.16-1.39-65.91 27.51-65.91 63.36 0 17.19 6.84 32.77 17.95 44.19 7.94 8.16 13.96 18.018 17.59 28.82Z"/><path fill="#678D98" d="M360.063 206.83h55.72v22.81c0 15.38-12.48 27.86-27.87 27.86s-27.87-12.48-27.87-27.87Z"/><path fill="#FEA95C" d="M451.27 131.05C449.88 98.3 423.15 71.7 390.4 70.44c-5.75-.22-11.34.33-16.661 1.54 27.24 6.25 48.02 30.28 49.24 59.056 .77 18.27-6.2 34.92-17.9 46.947 -7.96 8.17-13.97 18.02-17.6 28.83h28.27c3.63-10.81 9.64-20.66 17.59-28.84 11.69-12.03 18.66-28.68 17.89-46.947Z"/><path fill="#537983" d="M387.51 206.83v22.81c0 10.22-5.52 19.15-13.73 24.006 4.14 2.44 8.97 3.85 14.13 3.85 15.38 0 27.86-12.48 27.86-27.87V206.8Z"/><use fill="#F9C6C6" xlink:href="#a"/><path fill="#F9B1B1" d="M188.42 324.29c3.12-2.21 3.12-6.84 0-9.05l-32.845-23.13v25.44l21.19 14.92Z"/><path fill="#E94444" d="M16.349 292.079c-4.89 0-8.849 3.96-8.849 8.84v25.49c0-4.89 3.96-8.85 8.849-8.85H51.61v-25.5Z"/><path fill="#D83131" d="M51.614 297.77h103.97v49.64H51.61Z"/><path fill="#F47C7C" d="M7.5 306.624v31.95c0 4.88 3.96 8.84 8.849 8.84H51.61v-49.65h-35.27c-4.89-.01-8.849 3.96-8.849 8.84Z"/><path fill="#CA2C2C" d="M51.614 292.12h103.97v25.44H51.61Z"/><path fill="#EE6161" d="M7.5 300.969v25.45c0-4.89 3.96-8.85 8.849-8.85H51.61v-25.45h-35.27c-4.89 0-8.849 3.96-8.849 8.84Z"/><g><path d="M286.43 295.49h119.08c4.58 0 8.29-3.72 8.29-8.3 0-4.59-3.72-8.3-8.3-8.3H286.41c-4.59 0-8.3 3.71-8.3 8.29 -.01 4.58 3.71 8.29 8.29 8.29Z"/><path d="M396.123 315.774H295.83c-8.41 0-15.25 6.83-15.25 15.24v75.21c0 8.4 6.83 15.24 15.24 15.24H396.1c8.4 0 15.24-6.84 15.24-15.25v-75.22c0-8.41-6.84-15.25-15.25-15.25Zm.24 90.45c0 .13-.11.24-.25.24h-100.29c-.14 0-.25-.11-.25-.25v-75.22c0-.14.1-.25.24-.25h100.28c.13 0 .24.1.24.24v75.21Z"/><path d="M387.92 39.22c4.14 0 7.5-3.36 7.5-7.5V9.62c0-4.15-3.36-7.5-7.5-7.5 -4.15 0-7.5 3.35-7.5 7.5V31.71c0 4.14 3.35 7.5 7.5 7.5Z"/><path d="M330.765 51.74c1.46 1.46 3.38 2.19 5.3 2.19 1.91 0 3.83-.74 5.3-2.2 2.92-2.93 2.92-7.68 0-10.61L325.74 25.49c-2.93-2.93-7.68-2.93-10.61 0 -2.93 2.92-2.93 7.67 0 10.6Z"/><path d="M439.784 53.939c1.91 0 3.83-.74 5.3-2.2l15.625-15.625c2.92-2.93 2.92-7.68 0-10.61 -2.93-2.93-7.68-2.93-10.61 0l-15.63 15.625c-2.93 2.92-2.93 7.67 0 10.6 1.46 1.46 3.38 2.19 5.3 2.19Z"/><path d="M497.019 82.627h-22.1c-4.15 0-7.5 3.35-7.5 7.5 0 4.14 3.35 7.5 7.5 7.5H497c4.14 0 7.5-3.36 7.5-7.5 0-4.15-3.36-7.5-7.5-7.5Z"/><path d="M278.832 97.627h22.09c4.14 0 7.5-3.36 7.5-7.5 0-4.15-3.36-7.5-7.5-7.5h-22.1c-4.15 0-7.5 3.35-7.5 7.5 0 4.14 3.35 7.5 7.5 7.5Z"/><path d="M81.687 182.62h119.086c4.58 0 8.29-3.72 8.29-8.3 0-4.59-3.72-8.3-8.3-8.3H81.67c-4.59 0-8.3 3.71-8.3 8.29 -.01 4.58 3.71 8.29 8.29 8.29Z"/><path d="M81.687 220.24h119.086c4.58 0 8.29-3.72 8.29-8.3 0-4.59-3.72-8.3-8.3-8.3H81.67c-4.59 0-8.3 3.71-8.3 8.29 -.01 4.58 3.71 8.29 8.29 8.29Z"/><path d="M209.068 249.572c0-4.59-3.72-8.3-8.3-8.3H81.682c-4.59 0-8.3 3.71-8.3 8.29 0 4.58 3.71 8.29 8.29 8.29H200.75c4.58 0 8.29-3.72 8.29-8.3Z"/><path d="M81.687 398.955h119.086c4.58 0 8.29-3.72 8.29-8.3 0-4.59-3.72-8.3-8.3-8.3H81.67c-4.59 0-8.3 3.71-8.3 8.29 -.01 4.58 3.71 8.29 8.29 8.29Z"/><path d="M467.74 140.592h-9.23c.21-2.25.32-4.51.32-6.78 0-13.78-4.01-27.01-11.31-38.31 -2.25-3.48-6.9-4.48-10.37-2.23 -3.48 2.24-4.48 6.89-2.23 10.37 9.74 15.07 11.11 34.19 6.27 47.08 -3.1 12.39-14.66 23.55-15.66 24.67 -.14.15-.28.3-.41.45 -6.16 7.01-11.1 15.04-14.57 23.45H365.22c-3.9-9.48-9.81-18.732-17.42-26.56 -10.21-10.5-15.84-24.33-15.84-38.97 0-30.66 24.95-55.92 55.911-55.92 .73 0 1.46.01 2.2.04 7.65.29 15.03 2.13 21.94 5.48 3.72 1.8 8.21.24 10.02-3.48 1.8-3.73.24-8.22-3.48-10.02 -8.79-4.256-18.18-6.61-27.92-6.98 -36.19-1.37-66.733 24.54-72.64 58.78h-60.21c-5.45 0-10.44 2.01-14.26 5.34 -3.83-3.33-8.81-5.34-14.26-5.34H45.42c-7.81 0-14.16 6.34-14.16 14.15v4.7H19.37c-10.74 0-19.47 8.73-19.47 19.47V361.94c0 4.14 3.35 7.5 7.5 7.5 4.14 0 7.5-3.36 7.5-7.5v-7.16c.44.03.89.05 1.34.05h15c0 88.661-.13 82.892.28 84.91 1.32 6.44 7.03 11.3 13.86 11.3H229.23c4.2 0 5.42 3.13 6.75 4.4v22.68c-5.07-3.2-11.01-4.99-17.16-4.99H19.33c-2.465 0-4.47-2.01-4.47-4.47V396.92c0-4.15-3.36-7.5-7.5-7.5 -4.15 0-7.5 3.35-7.5 7.5v71.745c0 10.73 8.73 19.47 19.47 19.47H218.81c6.05 0 11.72 3.25 14.8 8.488 4.47 7.63 15.32 7.45 19.69 0 3.07-5.24 8.74-8.49 14.8-8.49H467.59c10.73 0 19.47-8.74 19.47-19.47v-308.71c0-10.74-8.74-19.48-19.47-19.48Zm-79.815 109.41c-11.23 0-20.37-9.14-20.37-20.37v-15.32h40.72v15.31c0 11.22-9.14 20.36-20.37 20.36Zm-130.07-113.28h59.21c.41 10.17 3.11 20.37 7.67 29.29h-38.31c-4.59 0-8.3 3.71-8.3 8.29 0 4.58 3.71 8.29 8.29 8.29h50.08c6.29 6.62 10.52 12.51 14.25 21.03h-64.339c-4.59 0-8.3 3.71-8.3 8.29 0 4.58 3.71 8.29 8.29 8.29h66.125v9.4c0 4.07.7 7.98 1.97 11.62h-68.1c-4.59 0-8.3 3.71-8.3 8.29 0 4.58 3.71 8.29 8.29 8.29l79.84-.28c5.98 4.64 13.49 7.42 21.64 7.42 19.49 0 35.36-15.863 35.36-35.37v-21.5c5.53-15.613 14.43-23.66 17.57-27.18v255.16h-183c-.02 0-.03 0-.05 0 -2.31 0-4.83.45-6.71 1.06V143.39c-.01-3.73 3.02-6.76 6.75-6.76Zm-242.86 23.32c0-2.47 2-4.47 4.47-4.47H31.34v129.02H16.33c-.46 0-.91.01-1.35.05Zm1.34 179.86c-.75 0-1.35-.61-1.35-1.35v-37.61c0-.75.6-1.35 1.34-1.35H38.83h5.26v40.303h-5.26H16.32Zm35.265 15h103.97c1.42 0 2.99-.45 4.27-1.35 .01-.01.02-.02.04-.03l32.845-23.13c3.46-2.44 5.52-6.42 5.52-10.66s-2.07-8.22-5.53-10.66l-32.845-23.13c-.02-.01-.03-.02-.05-.03 -1.1-.77-2.46-1.26-3.94-1.33 -.12-.01-.23-.02-.34-.02 -12.9 0-97.918 0-109.229 0V148.03v-11.36h183c3.72 0 6.75 3.02 6.75 6.75V437.14c-1.94-.63-4.45-1.07-6.71-1.07 -.02 0-.03-.01-.05-.01h-183v-81.22Zm96.46-15H59.09V299.59h88.97Zm33.74-20.16l-18.74 13.19v-26.4Zm290.387 149c0 2.46-2.01 4.47-4.47 4.47H268.234c-6.15 0-12.09 1.78-17.16 4.98V455.5c1.36-1.31 2.5-4.41 6.75-4.41H441.67c7.8 0 14.15-6.35 14.15-14.16V155.53h11.88c2.46 0 4.47 2 4.47 4.47v308.71Z"/></g></g></svg>